<svg width="24" height="24" viewBox="0 0 24 24" fill="none" xmlns="http://www.w3.org/2000/svg">
<path d="M21.75 20.6895L16.086 15.0255C17.4471 13.3914 18.1259 11.2956 17.981 9.17389C17.8362 7.05219 16.879 5.06801 15.3085 3.6341C13.7379 2.2002 11.6751 1.42697 9.54899 1.47528C7.42291 1.52359 5.39729 2.38971 3.89353 3.89347C2.38977 5.39723 1.52365 7.42284 1.47534 9.54893C1.42703 11.675 2.20026 13.7379 3.63416 15.3084C5.06807 16.8789 7.05225 17.8361 9.17395 17.981C11.2957 18.1258 13.3915 17.4471 15.0255 16.086L20.6895 21.75L21.75 20.6895ZM3.00003 9.74996C3.00003 8.41494 3.39591 7.1099 4.13761 5.99987C4.87931 4.88983 5.93351 4.02467 7.16691 3.51378C8.40031 3.00289 9.75751 2.86921 11.0669 3.12966C12.3763 3.39011 13.579 4.03299 14.523 4.97699C15.467 5.921 16.1099 7.12373 16.3703 8.4331C16.6308 9.74248 16.4971 11.0997 15.9862 12.3331C15.4753 13.5665 14.6102 14.6207 13.5001 15.3624C12.3901 16.1041 11.085 16.5 9.75003 16.5C7.96042 16.498 6.24469 15.7862 4.97925 14.5207C3.71381 13.2553 3.00201 11.5396 3.00003 9.74996Z" fill="#777777"/>
</svg>
